<svg width="24" height="24" viewBox="0 0 24 24" fill="none" xmlns="http://www.w3.org/2000/svg">
<g clip-path="url(#clip0_209_507)">
<path d="M16.246 0.327194L16.131 2.92428C16.1296 2.95713 16.1376 2.98969 16.1541 3.01814C16.1706 3.04658 16.1949 3.06972 16.2241 3.08482C16.2533 3.09993 16.2862 3.10637 16.3189 3.1034C16.3517 3.10042 16.3829 3.08815 16.4089 3.06803L17.4247 2.30136L18.2872 2.97219C18.3125 2.98917 18.3419 2.99914 18.3723 3.00108C18.4028 3.00301 18.4332 2.99685 18.4604 2.98321C18.4877 2.96958 18.5109 2.94896 18.5276 2.92345C18.5443 2.89795 18.5539 2.86847 18.5556 2.83803L18.4597 0.193027L19.7343 0.0971937C19.8916 0.0866804 20.0495 0.108639 20.198 0.161706C20.3465 0.214773 20.4825 0.297814 20.5975 0.405667C20.7125 0.513521 20.8042 0.643883 20.8667 0.788651C20.9292 0.933419 20.9613 1.0895 20.961 1.24719V21.9472C20.9612 22.1032 20.9296 22.2576 20.8683 22.401C20.8069 22.5444 20.717 22.6738 20.6041 22.7814C20.4911 22.889 20.3575 22.9724 20.2112 23.0267C20.065 23.081 19.9093 23.105 19.7535 23.0972L4.3243 22.4072C4.0342 22.3953 3.75935 22.274 3.55493 22.0678C3.35051 21.8616 3.23165 21.5857 3.22222 21.2955L2.50347 2.32053C2.4944 2.16945 2.51524 2.01807 2.5648 1.87506C2.61435 1.73205 2.69165 1.60024 2.79226 1.48717C2.89286 1.3741 3.0148 1.282 3.15107 1.21615C3.28735 1.1503 3.43528 1.112 3.58639 1.10344L16.2364 0.308027L16.246 0.327194ZM13.3039 9.0097C13.3039 9.46011 16.3322 9.2397 16.7443 8.93303C16.7443 5.86636 15.096 4.24678 12.0868 4.24678C9.06805 4.24678 7.39097 5.89511 7.39097 8.35803C7.39097 12.6226 13.141 12.6993 13.141 15.028C13.141 15.6989 12.8343 16.0822 12.1347 16.0822C11.2147 16.0822 10.841 15.6126 10.8889 14.0122C10.8889 13.6672 7.39097 13.5522 7.27597 14.0122C7.01722 17.8743 9.41305 18.9955 12.1635 18.9955C14.8372 18.9955 16.9264 17.5676 16.9264 14.9897C16.9264 10.4184 11.0806 10.543 11.0806 8.28136C11.0806 7.35178 11.7706 7.22719 12.1635 7.22719C12.5947 7.22719 13.3614 7.29428 13.3039 9.01928V9.0097Z" fill="white"/>
</g>
<defs>
<clipPath id="clip0_209_507">
<rect width="23" height="23" fill="white" transform="translate(0.586823 0.0971985)"/>
</clipPath>
</defs>
</svg>
