<svg width="22" height="22" viewBox="0 0 22 22" fill="none" xmlns="http://www.w3.org/2000/svg">
<path d="M16.3283 20.6255C16.2468 20.6685 16.2513 20.686 16.3329 20.6447C16.3568 20.6345 16.3786 20.6199 16.3971 20.6016C16.3971 20.587 16.3953 20.5888 16.3283 20.6255ZM16.4915 20.5393C16.453 20.5695 16.453 20.5714 16.4998 20.5475C16.5254 20.5347 16.5474 20.52 16.5474 20.5155C16.5474 20.498 16.5364 20.5026 16.4915 20.5393ZM16.5988 20.4742C16.5603 20.5045 16.5603 20.5063 16.607 20.4825C16.6327 20.4696 16.6547 20.455 16.6547 20.4504C16.6547 20.433 16.6437 20.4375 16.5988 20.4742ZM16.706 20.41C16.6675 20.4403 16.6675 20.4421 16.7143 20.4183C16.7399 20.4055 16.7619 20.3908 16.7619 20.3862C16.7619 20.3688 16.7509 20.3734 16.706 20.41ZM16.8545 20.3138C16.7794 20.3615 16.7555 20.3935 16.8225 20.3569C16.8701 20.3294 16.9471 20.2707 16.9343 20.2689C16.9062 20.2809 16.8794 20.296 16.8545 20.3138ZM10.279 0.00327095C10.2313 0.00785447 10.081 0.0225218 9.94533 0.0335222C6.8212 0.314951 3.89416 2.00077 2.04059 4.5923C1.01586 6.0147 0.349784 7.66353 0.0990041 9.39858C0.0110005 10.0027 0 10.1814 0 11.001C0 11.8205 0.0110005 11.9984 0.0990041 12.6034C0.696696 16.7341 3.63657 20.2047 7.62332 21.4908C8.33743 21.7209 9.09004 21.8777 9.94533 21.9721C10.279 22.0088 11.7192 22.0088 12.0528 21.9721C13.5296 21.8089 14.7819 21.4432 16.0158 20.8134C16.2046 20.7162 16.2413 20.6905 16.2156 20.6695C15.6129 19.8731 15.0158 19.0725 14.4243 18.2677L12.6652 15.8916L10.4614 12.63C9.7287 11.5386 8.9889 10.452 8.24209 9.37016C8.23384 9.36833 8.22468 10.8176 8.22101 12.5869C8.21459 15.6853 8.21276 15.81 8.17334 15.8833C8.13592 15.969 8.06888 16.0384 7.9845 16.0786C7.91575 16.1134 7.85524 16.1199 7.53073 16.1199H7.15855L7.05954 16.0575C6.99846 16.019 6.94877 15.9649 6.91562 15.9008L6.8707 15.8036L6.87529 11.4923L6.8817 7.17924L6.94862 7.09582C6.99358 7.04299 7.0476 6.9986 7.10813 6.96473C7.19613 6.92164 7.23097 6.91706 7.60315 6.91706C8.04225 6.91706 8.11467 6.93448 8.22926 7.05915C9.12134 8.38676 10.006 9.71937 10.8831 11.0569C12.3113 13.2222 14.263 16.1785 15.2228 17.6306L16.9645 20.2689L17.0525 20.2111C17.8906 19.6536 18.6506 18.9868 19.3122 18.2283C20.6982 16.6421 21.5971 14.6896 21.901 12.6052C21.989 12.0011 22 11.8223 22 11.0028C22 10.1833 21.989 10.0054 21.901 9.40041C21.3033 5.26974 18.3634 1.7991 14.3767 0.512959C13.6316 0.275759 12.8644 0.115117 12.0868 0.0335222C11.8805 0.012438 10.4587 -0.0113963 10.2808 0.00602106L10.279 0.00327095ZM14.7819 6.65671C14.8331 6.68248 14.8788 6.71821 14.9161 6.76181C14.9534 6.80541 14.9816 6.856 14.9991 6.91064C15.0165 6.96656 15.0202 8.16194 15.0165 10.8561L15.0101 14.7228L14.3281 13.6778L13.6442 12.6327V9.8221C13.6442 8.00519 13.6525 6.98398 13.6653 6.93448C13.6809 6.87734 13.7077 6.8239 13.7442 6.7773C13.7807 6.7307 13.8262 6.69188 13.878 6.66313C13.966 6.61821 13.9981 6.61363 14.3363 6.61363C14.6544 6.61363 14.7104 6.61821 14.7819 6.65671Z" fill="black"/>
</svg>
