<svg width="22" height="14" viewBox="0 0 22 14" fill="none" xmlns="http://www.w3.org/2000/svg">
<path d="M11 0.200012C8.06667 0.200012 6.23333 1.66668 5.5 4.60001C6.6 3.13335 7.88333 2.58335 9.35 2.95001C10.1869 3.15901 10.7846 3.76584 11.4473 4.43868C12.5262 5.53318 13.7738 6.80001 16.5 6.80001C19.4333 6.80001 21.2667 5.33334 22 2.40001C20.9 3.86668 19.6167 4.41668 18.15 4.05001C17.3131 3.84101 16.7154 3.23418 16.0527 2.56135C14.9747 1.46685 13.7271 0.200012 11 0.200012ZM5.5 6.80001C2.56667 6.80001 0.733333 8.26668 0 11.2C1.1 9.73334 2.38333 9.18334 3.85 9.55001C4.68692 9.75901 5.28458 10.3658 5.94733 11.0387C7.02625 12.1332 8.27383 13.4 11 13.4C13.9333 13.4 15.7667 11.9333 16.5 9.00001C15.4 10.4667 14.1167 11.0167 12.65 10.65C11.8131 10.441 11.2154 9.83418 10.5527 9.16134C9.47467 8.06684 8.22708 6.80001 5.5 6.80001Z" fill="white"/>
</svg>
