<svg width="23" height="23" viewBox="0 0 23 23" fill="none" xmlns="http://www.w3.org/2000/svg">
<path d="M18.7788 0.522156L18.6202 1.34887C18.375 2.91562 18.4638 3.36387 19.1361 3.94532L19.7853 4.48237L19.1129 7.48054C18.7112 9.2693 18.2185 10.7684 17.9056 11.261C17.6371 11.686 17.3241 12.3119 17.2565 12.6481C17.1444 13.0498 16.7638 13.4536 16.1824 13.811C15.6686 14.1027 14.66 14.8851 13.9454 15.513C13.3745 16.0268 12.9812 16.3419 12.7677 16.4772L12.0699 17.029C11.8458 17.3885 11.7189 17.6781 11.6703 17.898C11.6217 18.1243 11.6492 18.2744 11.7211 18.3843C11.7908 18.4901 11.9113 18.5641 12.0763 18.6106C12.2715 18.6563 12.4725 18.6727 12.6725 18.6592C13.1251 18.6283 13.5731 18.5489 14.0088 18.4224C14.1568 18.3822 14.2731 18.3442 14.3746 18.3103C14.5311 18.1179 14.8926 17.7543 15.5333 17.1221C17.2332 15.4454 17.8823 14.5277 17.2121 14.7751C16.9647 14.8639 17.0768 14.6398 17.5017 14.1915C18.3982 13.3183 18.912 11.9989 19.9861 7.86113C20.8361 4.59443 20.8361 4.54791 21.462 4.54791C21.7558 4.54791 22.5868 4.59866 22.5868 4.59866V0.522156H18.7788ZM11.2474 7.51014C10.63 7.50591 9.30222 8.44681 5.32721 11.6924C5.15594 12.1004 5.14114 12.3816 5.21937 12.5635C5.27012 12.6882 5.36315 12.7749 5.49213 12.8384C5.61899 12.9018 5.78391 12.9398 5.96575 12.9546C6.3273 12.9864 6.7544 12.9293 7.09905 12.8616L7.33163 12.8087C7.41124 12.702 7.51577 12.6163 7.6361 12.5593C7.88136 12.4239 8.91106 11.4852 9.94076 10.4787C11.7528 8.64344 12.1778 7.81461 11.4398 7.54609C11.3793 7.522 11.3126 7.5098 11.2474 7.51014ZM15.8906 8.78511C15.3472 8.79991 14.3682 9.42999 12.6916 10.7684C11.85 11.4513 11.3172 11.8192 11.0318 11.8953L9.92384 12.7707C9.50731 13.5319 9.446 14.0034 9.55594 14.2634C9.58346 14.3276 9.62341 14.3857 9.67349 14.4343C9.72357 14.4829 9.78279 14.5211 9.84773 14.5468C10.0093 14.6105 10.1815 14.6428 10.3552 14.6419C10.7702 14.6375 11.1827 14.577 11.5815 14.4622C11.7894 14.4064 11.9947 14.3415 12.1968 14.2677L12.2581 14.2423L12.3702 14.1831C12.5816 13.9103 13.0679 13.3965 13.6768 12.8045C15.6009 10.9481 16.5841 9.62874 16.3832 9.13609C16.2923 8.89717 16.1359 8.77665 15.8906 8.78511ZM10.7654 11.0686C10.6089 11.0855 10.2579 11.3562 9.62572 11.9101C8.71231 12.7178 7.71644 13.183 7.3718 12.9758C7.29171 12.9939 7.21135 13.0108 7.13076 13.0265C6.77978 13.0963 6.3421 13.1534 5.95095 13.1217C5.76664 13.1105 5.586 13.0654 5.41813 12.9885C5.25978 12.9161 5.13343 12.7882 5.06291 12.629C4.98468 12.4387 4.98468 12.2019 5.07348 11.8996L3.69914 13.0286L0.588907 15.6018V19.7735L10.7802 11.7452C10.7782 11.6573 10.7896 11.5696 10.814 11.4852C10.8922 11.2018 10.888 11.0581 10.7654 11.0707V11.0686ZM15.1506 12.4197C14.9962 12.4197 14.7383 12.6375 14.326 13.0752C13.7656 13.6735 12.884 14.2529 12.4167 14.3713L12.3448 14.4093C12.2681 14.441 12.1905 14.4706 12.1122 14.4981C11.9854 14.5404 11.8204 14.5912 11.6301 14.6419C11.2496 14.7455 10.7759 14.8407 10.3531 14.8301C10.1537 14.8298 9.95626 14.7911 9.77161 14.7159C9.59756 14.6442 9.45811 14.5078 9.38257 14.3353C9.25993 14.0414 9.30856 13.6291 9.57709 13.0434L0.586792 20.1245V22.6723H4.53643L12.9136 16.0924C13.1313 15.8513 13.4591 15.5215 13.901 15.1092C15.085 14.0118 15.3535 13.6334 15.3535 13.073C15.3535 12.6375 15.3049 12.4176 15.1506 12.4176V12.4197ZM17.1444 16.5427L16.4276 17.2574C16.0259 17.638 15.3091 18.1074 14.8186 18.3082L14.7213 18.3505L14.715 18.3611L14.6939 18.3822C14.6748 18.397 14.6664 18.3991 14.6516 18.4055C14.4558 18.4796 14.2568 18.5452 14.0553 18.6021C13.6073 18.7325 13.1465 18.814 12.681 18.8453C12.4609 18.8594 12.2399 18.8401 12.0255 18.7882C11.8395 18.7472 11.6753 18.6387 11.5646 18.4837C11.4631 18.3272 11.4335 18.1179 11.4906 17.86C11.536 17.6763 11.6034 17.4988 11.6915 17.3314L4.93182 22.6723H13.9221L14.9962 21.4417C16.472 19.7206 17.1444 18.4901 17.1444 17.4371V16.5427Z" fill="black"/>
</svg>
