<svg width="22" height="22" viewBox="0 0 22 22" fill="none" xmlns="http://www.w3.org/2000/svg">
<path d="M11 0C17.0748 0 22 4.92525 22 11C22 17.0748 17.0748 22 11 22C4.92525 22 0 17.0748 0 11C0 4.92525 4.92525 0 11 0ZM8.81375 14.6648C8.97417 15.2561 8.95675 15.8088 8.79175 16.3075L8.73217 16.4725C8.71017 16.5284 8.6845 16.5825 8.66067 16.6338C8.53233 16.8997 8.36183 17.1472 8.15192 17.3763C7.51208 18.0721 6.61925 18.3361 6.23608 18.1143C5.82358 17.8741 6.02892 16.8905 6.77142 16.1068C7.56983 15.2652 8.71475 14.7235 8.71475 14.7235V14.7208L8.81375 14.6648ZM17.8988 4.70892C17.402 2.75367 14.1616 2.11108 11.0953 3.201C9.27208 3.84908 7.29667 4.8675 5.87675 6.19575C4.18733 7.77333 3.91875 9.14833 4.02967 9.72308C4.42108 11.7498 7.19858 13.0753 8.34075 14.0589V14.0644C8.00433 14.2294 5.53942 15.466 4.96192 16.7457C4.34317 18.0932 5.05817 19.0566 5.52567 19.1794C6.96942 19.5791 8.45442 18.8494 9.25192 17.6678C10.0219 16.5119 9.95408 15.0269 9.62225 14.2982C10.0769 14.1744 10.6123 14.1194 11.2998 14.2028C13.2257 14.4228 13.6107 15.6328 13.5273 16.1278C13.4447 16.6219 13.0478 16.9107 12.9094 16.9932C12.7719 17.0766 12.7307 17.1032 12.7435 17.1591C12.7573 17.2416 12.8269 17.2416 12.936 17.2278C13.0873 17.2003 13.9407 16.8153 13.9819 15.8794C14.0232 14.6969 12.8948 13.3778 10.8882 13.4044C10.0632 13.4191 9.53975 13.4878 9.16942 13.6391C9.14433 13.6007 9.11156 13.5679 9.07317 13.5428C7.83567 12.2091 5.53942 11.2741 5.63567 9.50033C5.66317 8.85408 5.89692 7.15 10.0357 5.0875C13.4319 3.39533 16.1416 3.86375 16.6091 4.895C17.281 6.36533 15.1644 9.1025 11.6307 9.50033C10.2832 9.65158 9.58192 9.13 9.40225 8.93658C9.21067 8.73033 9.18317 8.71658 9.11442 8.75875C9.00442 8.81375 9.07317 8.9925 9.11442 9.1025C9.22442 9.3775 9.65067 9.85875 10.3941 10.1062C11.0394 10.3125 12.6216 10.4353 14.5191 9.69375C16.6494 8.86967 18.3132 6.5725 17.8319 4.6475L17.8988 4.70892Z" fill="white"/>
</svg>
