<svg width="22" height="22" viewBox="0 0 22 22" fill="none" xmlns="http://www.w3.org/2000/svg">
<path d="M0 11V22H22V0H0V11ZM17.7292 10.1237C18.2884 10.263 18.7137 10.5114 19.1052 10.9166C19.3077 11.1329 19.6084 11.5271 19.6322 11.6224C19.6396 11.6499 18.6826 12.2916 18.1033 12.6518C18.0822 12.6656 17.9978 12.5748 17.9043 12.4355C17.6202 12.023 17.3241 11.8452 16.8703 11.814C16.203 11.7682 15.774 12.1174 15.7777 12.7004C15.7716 12.8438 15.8039 12.9862 15.8712 13.1129C16.0178 13.4163 16.291 13.5988 17.1453 13.9682C18.7211 14.6465 19.3948 15.0929 19.8137 15.7282C20.2812 16.4368 20.3867 17.5688 20.0686 18.4103C19.7202 19.3252 18.854 19.9467 17.6348 20.152C17.2581 20.2189 16.3643 20.2088 15.9592 20.1355C15.0755 19.9778 14.2377 19.5415 13.7207 18.9686C13.5181 18.7458 13.123 18.1619 13.1478 18.1207C13.2113 18.0721 13.2787 18.0289 13.3494 17.9914C13.4484 17.9355 13.8178 17.7219 14.1671 17.5193L14.7996 17.1527L14.9325 17.3488C15.1177 17.6312 15.5219 18.0189 15.7667 18.1482C16.4688 18.5185 17.4323 18.4663 17.9071 18.04C18.0026 17.9596 18.0782 17.8581 18.1279 17.7436C18.1777 17.6291 18.2003 17.5047 18.194 17.38C18.194 17.1252 18.1619 17.0133 18.029 16.8208C17.8585 16.577 17.5092 16.3717 16.5174 15.9408C15.3826 15.4522 14.894 15.1488 14.4467 14.6667C14.1675 14.3485 13.9613 13.973 13.8426 13.5667C13.7592 13.2559 13.7381 12.4768 13.8041 12.1632C14.0378 11.066 14.8656 10.3024 16.06 10.0751C16.4478 10.0017 17.3488 10.0293 17.7292 10.1237ZM12.5647 11.0422L12.5721 11.9433H9.7075V20.0796H7.68167V11.9433H4.81983V11.0596C4.81983 10.5701 4.82992 10.1613 4.84367 10.1521C4.85467 10.1374 6.59725 10.1301 8.70925 10.1338L12.5547 10.1448L12.5647 11.0422Z" fill="white"/>
</svg>
