<svg width="22" height="20" viewBox="0 0 22 20" fill="none" xmlns="http://www.w3.org/2000/svg">
<path d="M11 7.82585C10.7425 7.82585 10.4875 7.87656 10.2497 7.9751C10.0118 8.07364 9.79561 8.21806 9.61354 8.40014C9.43147 8.58221 9.28704 8.79836 9.1885 9.03625C9.08997 9.27414 9.03925 9.52911 9.03925 9.7866C9.03925 10.0441 9.08997 10.2991 9.1885 10.5369C9.28704 10.7748 9.43147 10.991 9.61354 11.1731C9.79561 11.3551 10.0118 11.4996 10.2497 11.5981C10.4875 11.6966 10.7425 11.7473 11 11.7473C11.2575 11.7473 11.5125 11.6966 11.7503 11.5981C11.9882 11.4996 12.2044 11.3551 12.3865 11.1731C12.5685 10.991 12.713 10.7748 12.8115 10.5369C12.91 10.2991 12.9608 10.0441 12.9608 9.7866C12.9608 9.52911 12.91 9.27414 12.8115 9.03625C12.713 8.79836 12.5685 8.58221 12.3865 8.40014C12.2044 8.21806 11.9882 8.07364 11.7503 7.9751C11.5125 7.87656 11.2575 7.82585 11 7.82585ZM5.50733 13.687L5.07467 13.577C1.84983 12.7621 0 11.3788 0 9.78293C0 8.18701 1.84983 6.80376 5.07467 5.98884L5.50733 5.87976L5.62925 6.30876C5.95593 7.43417 6.37379 8.53107 6.87867 9.5886L6.97125 9.78384L6.87867 9.9791C6.37295 11.0363 5.95506 12.1332 5.62925 13.2589L5.50733 13.687ZM4.87392 6.99076C2.42275 7.67918 0.9185 8.73243 0.9185 9.78293C0.9185 10.8325 2.42275 11.8858 4.87392 12.5751C5.17369 11.6217 5.53563 10.689 5.95742 9.78293C5.53515 8.87709 5.17319 7.94433 4.87392 6.99076ZM16.4927 13.687L16.3708 13.2571C16.0444 12.1318 15.6262 11.0351 15.1204 9.97818L15.0278 9.78293L15.1204 9.58768C15.626 8.53036 16.0442 7.43342 16.3708 6.30785L16.4927 5.87884L16.9263 5.98793C20.1502 6.80285 22 8.1861 22 9.78293C22 11.3798 20.1502 12.7621 16.9263 13.577L16.4927 13.687ZM16.0426 9.78293C16.4826 10.7353 16.8465 11.6713 17.1261 12.5751C19.5782 11.8858 21.0815 10.8325 21.0815 9.78293C21.0815 8.73243 19.5773 7.68009 17.1261 6.99076C16.8267 7.9443 16.4648 8.87705 16.0426 9.78293ZM4.8675 6.98618L4.74558 6.55809C3.839 3.36259 4.114 1.07276 5.5 0.273428C6.85942 -0.511238 9.042 0.415511 11.3291 2.76309L11.6408 3.08301L11.3291 3.40293C10.5164 4.24773 9.77391 5.15732 9.10892 6.12268L8.98517 6.29959L8.76975 6.31793C7.6 6.41014 6.43966 6.59715 5.30017 6.8771L4.8675 6.98618ZM6.6055 0.908678C6.35983 0.908678 6.14258 0.961845 5.95925 1.06726C5.04808 1.59251 4.88675 3.41851 5.51467 5.88251C6.4915 5.6652 7.48146 5.51179 8.47825 5.42326C9.05339 4.60549 9.68175 3.82647 10.3593 3.09126C8.92925 1.69885 7.57533 0.908678 6.6055 0.908678ZM15.3954 19.5738C15.3945 19.5738 15.3945 19.5738 15.3954 19.5738C14.0892 19.5738 12.4117 18.5903 10.6709 16.8028L10.3593 16.4828L10.6709 16.1629C11.4834 15.3179 12.2256 14.408 12.8902 13.4423L13.0139 13.2653L13.2284 13.247C14.3988 13.1553 15.5597 12.9686 16.6998 12.6888L17.1325 12.5797L17.2553 13.0087C18.1601 16.2023 17.886 18.4931 16.5 19.2915C16.1633 19.4819 15.7821 19.5793 15.3954 19.5738ZM11.6408 16.4746C13.0708 17.867 14.4247 18.6572 15.3945 18.6572H15.3954C15.6402 18.6572 15.8583 18.604 16.0408 18.4986C16.9519 17.9733 17.1142 16.1464 16.4853 13.6824C15.5082 13.9 14.518 14.0535 13.5208 14.1417C12.9464 14.96 12.3183 15.7394 11.6408 16.4746ZM17.1325 6.98618L16.6998 6.8771C15.5599 6.59634 14.3989 6.40932 13.2284 6.31793L13.0139 6.29959L12.8902 6.12268C12.2259 5.15702 11.4837 4.2474 10.6709 3.40293L10.3593 3.08301L10.6709 2.76309C12.9571 0.416428 15.1388 -0.510322 16.5 0.273428C17.886 1.07276 18.161 3.3626 17.2553 6.55718L17.1325 6.98618ZM13.5208 5.42326C14.5677 5.51859 15.5623 5.67351 16.4853 5.88251C17.1142 3.41851 16.9519 1.59251 16.0408 1.06726C15.1351 0.543845 13.4328 1.34593 11.6408 3.09126C12.3179 3.8265 12.946 4.60552 13.5208 5.42326ZM6.6055 19.5738C6.21848 19.5795 5.83693 19.482 5.5 19.2915C4.114 18.4931 3.839 16.2033 4.74558 13.0087L4.86658 12.5797L5.29925 12.6888C6.358 12.9555 7.52583 13.1434 8.76883 13.247L8.98425 13.2653L9.10708 13.4423C9.77218 14.4078 10.5147 15.3177 11.3273 16.1629L11.6389 16.4828L11.3273 16.8028C9.58742 18.5903 7.90992 19.5738 6.6055 19.5738ZM5.51467 13.6824C4.88583 16.1464 5.04808 17.9733 5.95925 18.4986C6.864 19.0147 8.56533 18.219 10.3593 16.4746C9.68202 15.7388 9.05367 14.9595 8.47825 14.1417C7.48141 14.0535 6.49143 13.9001 5.51467 13.6824ZM11 14.2581C10.2456 14.2581 9.47008 14.2251 8.69367 14.1609L8.47825 14.1426L8.3545 13.9657C7.91533 13.3346 7.50248 12.6857 7.117 12.0205C6.73266 11.3548 6.37608 10.6734 6.04817 9.97818L5.9565 9.78293L6.04817 9.58768C6.37603 8.8924 6.73261 8.21104 7.117 7.54535C7.4965 6.88901 7.91358 6.23451 8.3545 5.60018L8.47825 5.42326L8.69367 5.40493C10.2288 5.27476 11.7721 5.27476 13.3073 5.40493L13.5218 5.42326L13.6446 5.60018C14.5238 6.86249 15.2956 8.19633 15.9518 9.58768L16.0444 9.78293L15.9518 9.97818C15.2972 11.3703 14.5253 12.7043 13.6446 13.9657L13.5218 14.1426L13.3073 14.1609C12.5308 14.2251 11.7544 14.2581 11 14.2581ZM8.98608 13.2644C10.3428 13.3662 11.6573 13.3662 13.0148 13.2644C13.7728 12.1564 14.4457 10.9926 15.0278 9.78293C14.4467 8.57255 13.7734 7.40862 13.0139 6.30143C11.6732 6.19968 10.3268 6.19968 8.98608 6.30143C8.22624 7.40841 7.55294 8.57236 6.97217 9.78293C7.55494 10.9924 8.22816 12.1562 8.98608 13.2644Z" fill="#fff"/>
</svg>
