<svg width="1284" height="837" viewBox="0 0 1284 837" fill="none" xmlns="http://www.w3.org/2000/svg">
<g opacity="0.7" filter="url(#filter0_f_5_316)">
<path opacity="0.15" d="M651.333 651.438C615.664 627.847 579.564 578.606 611.83 525.507C615.157 520.033 646.677 469.94 708.532 455.279C783.873 437.422 813.578 493.613 899.016 483.523C991.541 472.596 1029.62 398.084 1077.06 402.199C1133.15 407.065 1166.5 518.764 1085.67 596.839C988.29 690.895 747.244 714.871 651.333 651.438Z" fill="#EC4899"/>
<path opacity="0.15" d="M383.314 211.677C399.986 240.492 416.467 295.458 400.236 345.113C398.562 350.232 382.733 396.931 352.963 403.489C316.702 411.476 303.382 350.304 262.418 349.027C218.057 347.644 198.716 418.295 176.123 407.702C149.407 395.175 135.204 277.047 175.019 208.545C222.982 126.022 338.483 134.194 383.314 211.677Z" fill="#EC4899"/>
<path opacity="0.15" d="M478.61 217.955C438.627 245.134 396.144 298.124 426.389 348.323C429.507 353.498 459.195 400.75 524.108 409.447C603.174 420.04 639.379 360.69 729.85 362.495C827.824 364.45 862.58 435.595 913.583 426.835C973.893 416.476 1018.41 301.006 938.265 230.45C841.721 145.453 586.12 144.873 478.61 217.955Z" fill="#0EA5E9"/>
<path opacity="0.15" d="M539.041 609.57C564.358 580.187 591.051 524.036 571.293 473.098C569.256 467.846 549.879 419.937 508.323 413.022C457.707 404.599 435.081 467.125 377.252 468.153C314.627 469.267 291.807 396.815 259.29 407.505C220.839 420.146 193.385 540.966 245.202 611.357C307.626 696.155 470.967 688.576 539.041 609.57Z" fill="#0EA5E9"/>
</g>
<defs>
<filter id="filter0_f_5_316" x="0.299255" y="0.0342407" width="1283.58" height="836.805" filterUnits="userSpaceOnUse" color-interpolation-filters="sRGB">
<feFlood flood-opacity="0" result="BackgroundImageFix"/>
<feBlend mode="normal" in="SourceGraphic" in2="BackgroundImageFix" result="shape"/>
<feGaussianBlur stdDeviation="75" result="effect1_foregroundBlur_5_316"/>
</filter>
</defs>
</svg>
