<svg width="31" height="30" viewBox="0 0 31 30" fill="none" xmlns="http://www.w3.org/2000/svg">
<path d="M15.3808 0C6.88293 0 0 6.88677 0 15.3808C0 22.1779 4.40661 27.9419 10.5167 29.9734C11.2857 30.1183 11.5677 29.6427 11.5677 29.2339C11.5677 28.8686 11.5549 27.9009 11.5485 26.6191C7.27001 27.5471 6.36767 24.5555 6.36767 24.5555C5.66784 22.7803 4.65655 22.3061 4.65655 22.3061C3.2633 21.3525 4.76422 21.3717 4.76422 21.3717C6.30871 21.4794 7.12005 22.9559 7.12005 22.9559C8.49151 25.3079 10.7205 24.6286 11.5997 24.2351C11.7381 23.2405 12.1342 22.5624 12.5738 22.1779C9.15801 21.7934 5.56787 20.4706 5.56787 14.5772C5.56787 12.8981 6.16387 11.5267 7.15081 10.45C6.97778 10.0616 6.45867 8.49792 7.28539 6.37921C7.28539 6.37921 8.57354 5.96649 11.5151 7.95574C12.7456 7.61352 14.053 7.44433 15.3603 7.43664C16.6677 7.44433 17.9751 7.61352 19.2056 7.95574C22.1279 5.96649 23.4161 6.37921 23.4161 6.37921C24.2428 8.49792 23.7237 10.0616 23.5699 10.45C24.5504 11.5267 25.1464 12.8981 25.1464 14.5772C25.1464 20.486 21.5511 21.787 18.1289 22.1651C18.6672 22.6265 19.1671 23.5699 19.1671 25.0105C19.1671 27.069 19.1479 28.7224 19.1479 29.2223C19.1479 29.6261 19.417 30.1067 20.2053 29.9529C26.3589 27.9355 30.7617 22.1676 30.7617 15.3808C30.7617 6.88677 23.8749 0 15.3808 0" fill="#5b21b6ff"/>
</svg>
