<svg width="31" height="23" viewBox="0 0 31 23" fill="none" xmlns="http://www.w3.org/2000/svg">
<path d="M30.6664 1.91685V21.0834C30.6664 22.1695 29.8358 23 28.7497 23H26.8331V5.60577L15.3332 13.864L3.8333 5.60577V23H1.91665C0.82927 23 0 22.1695 0 21.0834V1.91685C0 1.3738 0.206998 0.89464 0.550717 0.552198C0.730096 0.373771 0.943347 0.233019 1.17792 0.138222C1.4125 0.0434258 1.66367 -0.00350078 1.91665 0.000203384H2.55553L15.3332 9.26401L28.1109 0.000203384H28.7497C29.2928 0.000203384 29.772 0.207201 30.1157 0.552198C30.4607 0.89464 30.6664 1.3738 30.6664 1.91685Z" fill="#ef4444ff"/>
</svg>
