<svg width="30" height="30" viewBox="0 0 30 30" fill="none" xmlns="http://www.w3.org/2000/svg">
<path d="M0 0V30H30V0H0ZM24.9225 7.1075L23.3137 8.65C23.2455 8.70194 23.1928 8.77156 23.1613 8.85132C23.1298 8.93108 23.1207 9.01795 23.135 9.1025V20.4363C23.1209 20.5206 23.1301 20.6072 23.1616 20.6867C23.1931 20.7663 23.2457 20.8357 23.3137 20.8875L24.885 22.43V22.7688H16.9825V22.4312L18.61 20.85C18.77 20.69 18.77 20.6437 18.77 20.4V11.2375L14.245 22.7312H13.6325L8.3625 11.2375V18.9412C8.34082 19.101 8.35578 19.2636 8.40624 19.4167C8.4567 19.5698 8.54134 19.7094 8.65375 19.825L10.7712 22.3925V22.7312H4.76875V22.3938L6.8875 19.825C6.999 19.7094 7.08175 19.5691 7.12908 19.4156C7.17642 19.2621 7.18701 19.0996 7.16 18.9412V10.0338C7.17248 9.91173 7.156 9.78849 7.11191 9.67403C7.06782 9.55957 6.99736 9.45712 6.90625 9.375L5.02375 7.1075V6.77H10.8662L15.3825 16.6737L19.3525 6.76875H24.9225V7.1075Z" fill="#292524ff"/>
</svg>
